<svg version="1.0" xmlns="http://www.w3.org/2000/svg" 
width="20" height="20" viewBox="0 0 64 64" preserveAspectRatio="xMidYMid meet">
<g transform="translate(0,64) scale(0.1,-0.10)" fill="#000000" stroke="none">
<path d="M237 598 c-9 -7 -21 -25 -26 -40 -10 -27 -13 -28 -81 -28 -64 0 -71
-2 -78 -22 -11 -33 -7 -467 5 -479 6 -6 97 -8 234 -7 l224 3 3 53 c3 47 1 53
-15 50 -13 -2 -18 -13 -18 -38 l0 -35 -200 0 -200 0 0 180 0 180 200 0 200 0
1 -45 c2 -67 3 -70 19 -70 13 0 15 17 13 113 l-3 112 -73 3 c-58 2 -74 6 -79
20 -19 54 -85 80 -126 50z m91 -68 c9 -25 16 -30 42 -30 39 0 70 -16 70 -35 0
-13 -26 -15 -155 -15 -129 0 -155 2 -155 15 0 19 31 35 70 35 24 0 33 6 41 28
22 59 67 61 87 2z"/>
<path d="M130 355 c0 -12 17 -15 95 -15 78 0 95 3 95 15 0 12 -17 15 -95 15
-78 0 -95 -3 -95 -15z"/>
<path d="M342 268 l-52 -54 54 -53 55 -54 3 34 3 34 98 3 97 3 0 34 0 34 -97
3 -98 3 -5 33 -5 33 -53 -53z"/>
<path d="M130 275 c0 -11 12 -15 45 -15 33 0 45 4 45 15 0 11 -12 15 -45 15
-33 0 -45 -4 -45 -15z"/>
<path d="M130 195 c0 -11 12 -15 45 -15 33 0 45 4 45 15 0 11 -12 15 -45 15
-33 0 -45 -4 -45 -15z"/>
<path d="M127 123 c-18 -17 0 -23 73 -23 64 0 80 3 80 15 0 12 -15 15 -73 15
-41 0 -77 -3 -80 -7z"/>
</g></svg>
